<?xml version="1.0" standalone="no"?>
<!DOCTYPE svg PUBLIC "-//W3C//DTD SVG 20010904//EN"
 "http://www.w3.org/TR/2001/REC-SVG-20010904/DTD/svg10.dtd">
<svg version="1.0" xmlns="http://www.w3.org/2000/svg"
 width="265.000000pt" height="265.000000pt" viewBox="0 0 265.000000 265.000000"
 preserveAspectRatio="xMidYMid meet">

<g transform="translate(0.000000,265.000000) scale(0.100000,-0.100000)"
fill="#000000" stroke="none">
<path d="M0 1325 l0 -1325 1325 0 1325 0 0 1325 0 1325 -1325 0 -1325 0 0
-1325z m1256 998 c14 -15 16 -30 10 -109 -27 -384 -275 -689 -630 -774 -99
-24 -120 -25 -141 -4 -14 14 -15 52 -13 328 l3 313 28 36 c34 45 71 65 218
115 127 44 258 76 388 97 115 18 117 18 137 -2z m378 -14 c181 -33 451 -123
498 -166 11 -10 29 -35 39 -55 17 -34 19 -63 19 -336 0 -283 -1 -300 -19 -316
-16 -15 -29 -17 -73 -11 -288 39 -550 261 -650 550 -33 98 -63 306 -48 335 18
33 44 33 234 -1z m-994 -1034 c64 -16 142 -44 200 -72 79 -39 109 -62 180
-133 47 -47 100 -111 119 -143 77 -132 131 -362 131 -560 0 -148 -9 -148 -201
3 -116 91 -282 258 -362 365 -111 149 -201 346 -221 486 -5 36 -3 50 9 63 21
21 21 21 145 -9z m1535 9 c17 -17 15 -40 -11 -147 -41 -168 -163 -375 -318
-537 -103 -107 -208 -202 -307 -275 -82 -62 -104 -73 -119 -65 -29 15 -31 38
-20 180 22 272 81 444 203 589 113 134 257 210 502 264 39 9 54 7 70 -9z"/>
</g>
</svg>
